<svg xmlns="http://www.w3.org/2000/svg" width="147.924" height="135.286" viewBox="0 0 147.924 135.286">
  <g id="组_395" data-name="组 395" transform="translate(-114.167 -30.235)">
    <path id="路径_2557" data-name="路径 2557" d="M1066.121,170.494V149.706l9.8-10.394-.961-.812-17.485,19.327h-.384v.487l-6.725,7.146-6.533-6.821v-.812h-.576l-14.219-15.916-.961.65,6.341,7.146v20.788l-6.917,8.283,1.153.812,5.764-6.821v10.719l-6.917,7.471.961.812,5.956-6.659v15.754L1027.5,208.5l1.153.812,5.956-6.821-.192,71.3h1.153V257.707h6.725v16.078h1.537l.192-12.993,4.419-4.385,1.345,1.3.192,16.078h1.153V257.707l1.153-1.3,4.8,4.547v12.83h1.537V257.707h6.533v16.078h.961V202.164l4.419,5.035v66.587h1.345V262.255l4.227,7.958v3.573h1.153V253l1.825-1.705,1.249,1.543v20.951h1.345v-3.9l4.42-8.283.192,12.181h.961V194.368Zm-30.455-19.245,6.533,6.984v12.83l-6.533-6.334Zm0,15.754,6.533,6.5v1.3l-6.533,7.146Zm0,48.56h3.266v1.949h-3.266Zm0,2.923h3.266v4.872h-3.266Zm0,5.847h3.266v7.958h-3.266Zm0,8.77h3.266v7.958h-3.266Zm0,8.932h3.266v7.958h-3.266Zm6.725,14.779h-6.725v-2.436h6.725Zm0-3.573h-6.725v-2.274h6.725Zm0-3.248h-2.306v-7.958h2.306Zm0-8.932h-2.306V233.1h2.306Zm0-8.77h-2.306v-7.958h2.306Zm0-8.932h-2.306v-4.872h2.306Zm0-5.847h-2.306v-1.949h2.306Zm0-3.086h-6.725V208.9h6.725Zm0-6.5h-6.725v-6.984l6.725-7.471Zm0-16.4-6.725,7.633V183.731l6.725-7.146Zm14.6-31.345v12.505l-.192.162-5.572-6.334Zm-5.956,68.049v-5.359l5.956-5.684v5.522Zm5.956-3.9V250.48l-2.69,2.761-3.266-2.923v-20.3Zm-5.956-3.086v-5.522l5.956-5.684V215.4Zm0-7.146v-5.522l5.956-5.522v5.522Zm0-6.984V201.6l5.956-5.847v5.684Zm0-6.984v-5.522l5.956-5.684v5.522Zm0-7.146V187.3l5.956-5.522V187.3Zm0-7.146v-5.359l5.956-5.359v5.035Zm-7.11-25.5,5.572,6.009v.487l-5.572,5.847Zm0,91.76,1.922,1.949-1.922,1.787Zm0,6.984v-1.624l2.69-2.6.961.812Zm5.957-2.923-.576-.487.576-.65Zm0-4.223V253.4l-1.537,1.462-.769-.812Zm0-1.624-3.074,2.923-2.882-2.761V224.333l5.957,5.684Zm0-22.087-5.957-5.522v-5.522l5.957,5.684Zm0-6.984-5.957-5.684v-5.522l5.957,5.684Zm0-7.146-5.957-5.522v-5.522l5.957,5.522Zm0-7.146-5.957-5.522v-5.359l5.957,5.522Zm0-6.821-5.957-5.684v-5.684l5.957,5.847Zm0-7.146-5.957-5.684v-5.522l5.957,5.684Zm0-7.146-5.957-5.684v-5.035l5.957,5.522Zm-5-12.343,5.572-6.009,5.572,6.171-5.572,5.2Zm6.149,82.666v-1.3l.576.65Zm1.345-1.3-1.345-1.3v-1.786l2.114,2.274Zm4.612,4.223-3.651-3.573.576-.65,3.074,2.761Zm.1-3-1.922-1.624v-.65l1.922-1.786Zm1.441-40.521h2.114v1.949h-2.114Zm0,2.923h2.114v4.872h-2.114Zm0,5.847h2.114v7.958h-2.114Zm0,8.932h2.114v7.8h-2.114Zm0,8.77h2.114v7.958h-2.114Zm6.533,14.617h-6.533v-2.274h6.533Zm0-3.411h-6.533v-2.274h6.533Zm0-3.248h-3.074v-7.958h3.074Zm0-8.932h-3.074v-7.8h3.074Zm0-8.77h-3.074v-7.958h3.074Zm0-8.932h-3.074v-4.872h3.074Zm0-5.847h-3.074v-1.949h3.074Zm0-3.086h-6.533V208.9h6.533Zm0-6.5h-6.533V193.475l6.533,7.633Zm0-8.77-6.533-7.471v-15.1l6.533,6.984Zm0-17.215-6.533-7.308V173.5l6.533-6.334Zm0-17.215-6.533,6.334V158.395l6.533-7.146Zm1.153,7.8,3.459,4.06v10.394l-3.459-3.573Zm5.38,33.781-5.38-5.684V185.192l12.105,13.317Zm5.764,8.608.961.974-.961.974Zm-.192,17.378.961.974-.961.974Zm-4.8-7.308h3.651V229.2Zm3.651,6.009v4.547l-4.035,4.385V226.606Zm-3.651-6.984,3.651-4.223v4.223Zm-.385-1.462V208.9l4.035,4.547v4.71Zm4.227,44.987-4.035-7.958h4.035Zm0-8.932h-3.651l3.651-4.06Zm0-5.847-4.227,4.547v-13.48l4.227,4.71Zm0-5.847-4.035-4.547h4.035Zm0-5.522h-3.843l3.843-4.223Zm0-29.721-3.459-3.9h3.459Zm0-4.872h-3.266l3.266-3.735Zm.961,44.987v-2.436l1.153,1.137Zm3.074-.487-.576-.65.576-.812Zm0-3.086-1.345,1.462-1.729-1.786.192-12.181,1.537-1.624,1.345,1.462Zm0-14.292-.576-.65.576-.487Zm0-3.086-1.345,1.462-1.537-1.624V218.486l1.537-1.786,1.345,1.624Zm0-14.292-.576-.65.576-.65Zm0-2.923-1.153,1.3-1.729-1.786V201.433l1.729-2.111,1.153,1.3Zm0-14.779-9.415-10.232V177.884l9.415,10.719Zm1.345,3.248,4.035,4.547h-4.035Zm0,5.522h4.035l-4.035,4.385Zm0,12.181,3.843,4.223h-3.843Zm0,5.2h3.843l-3.843,4.223Zm0,42.551v-7.958h4.419Zm0-8.77V254.54l4.035,4.223Zm4.611-.974-4.611-4.872v-4.547l4.611-4.872Zm-.769-15.429-3.843,4.385V242.36Zm-3.843-.974v-4.06l3.843,4.06Zm4.611-.812s-4.42-4.71-4.611-5.035a35.764,35.764,0,0,1,0-4.547l4.611-5.035Zm0-17.378-4.611-5.2v-4.385l4.611-5.035Zm0-17.7-4.611-5.035V190.227l4.611,5.2Z" transform="translate(-913.333 -108.265)" fill="#fff"/>
    <g id="组_378" data-name="组 378" transform="translate(194.744 119.802)">
      <g id="组_305" data-name="组 305" transform="translate(0 0)">
        <path id="路径_160" data-name="路径 160" d="M184,548.79a10.543,10.543,0,0,0,2.693-1.539A30.7,30.7,0,0,0,189,544.173l3.463-4.617,1.924,1.924-5,5.387v.77a4.74,4.74,0,0,0,2.693-.77c.77-.77,2.309-2.693,2.309-2.693l1.924,1.154-5.772,5.772s-.385.77.77.385,1.924-2.309,3.078-2.309,3.078,1.924,3.078,2.309,0,.77-1.539,1.154l-1.539.385a1.667,1.667,0,0,0,.77-1.539c0-1.154-1.154-1.539-1.539-1.154s-.77.77-.385,1.539.385,1.539-.385,1.539a5.175,5.175,0,0,0-3.078.769,19.935,19.935,0,0,1-1.924,1.154v6.156l-3.078-1.539a49.051,49.051,0,0,0,2.693-4.617,12.814,12.814,0,0,0-1.154-2.309A6.89,6.89,0,0,0,189,551.1c.77-1.154,1.539-1.539.77-1.539s-3.463.77-3.848,1.539Z" transform="translate(-184 -534.073)" fill="#fff"/>
        <path id="路径_161" data-name="路径 161" d="M211.656,613.371s1.154,2.309,1.924,2.693,1.154,1.155.385,1.155-2.309,0-2.693-1.155A4.247,4.247,0,0,1,211.656,613.371Z" transform="translate(-205.5 -592.497)" fill="#fff"/>
        <path id="路径_162" data-name="路径 162" d="M226.444,610.45s.385,1.924,1.154,1.924,1.924,0,1.924-.385a3.413,3.413,0,0,0-1.539-1.924C227.214,609.68,226.444,609.3,226.444,610.45Z" transform="translate(-217.594 -589.576)" fill="#fff"/>
        <path id="路径_163" data-name="路径 163" d="M374.349,553.8c1.154,2.309,1.154,2.694,1.539,3.078s1.539,1.924-.385,1.924-3.848-1.154-3.463-3.078.385-4.232,2.309-2.308Z" transform="translate(-332.794 -544.471)" fill="#fff"/>
        <path id="路径_164" data-name="路径 164" d="M393.014,607.788c.385-1.154-8.465-2.309-9.619-2.309s-11.158-3.463-12.313-3.463-2.693-3.078-2.693-3.078-.77-1.924,0-2.694,1.539-1.154.385-1.924-2.309-1.924-2.693-1.539-.16,1.236-.16,1.236c0,2.309.16,3.381.929,4.536s2.309,3.078,0,3.463A25.918,25.918,0,0,1,363,602.4s0-.385.385,1.154,1.154,1.924,2.693,1.154,6.156-.769,8.08,0a19.05,19.05,0,0,0,5,1.539c2.309.385,3.078,1.924,3.848,2.693s4.617.385,4.617.385,5-.385,5.387-1.539" transform="translate(-325.679 -576.14)" fill="#fff"/>
        <path id="路径_165" data-name="路径 165" d="M414.571,531.824a4.609,4.609,0,0,0-3.078-1.154,41.818,41.818,0,0,0-5.772.77V529.9a.377.377,0,0,1,.385-.385c.385,0,3.463,0,3.463-.385a10.736,10.736,0,0,1,1.924-3.463c1.154-1.539.77-1.539-.385-2.309s-3.463-.385-3.463-.77a1.445,1.445,0,0,1,1.539-1.539H413.8v-2.308l-4.617.385a36.212,36.212,0,0,1,1.539-3.848c.77-1.539-.385-1.539-1.539-1.924s-1.154.385-1.154,2.309a27.75,27.75,0,0,1-1.924,7.7c-.385.385-1.539.385-1.539.385s-1.154,0-1.154-.385a8.73,8.73,0,0,0-.385-1.539s0-3.848.385-4.233,0-.769-1.154-1.154-1.615-.485-1.615-.1.076,2.409.076,2.409v1.924s-2.309.385-3.847.77-.385.77-.385.77a5.542,5.542,0,0,0,.77,1.154c.385.385.385.77,1.154,0s3.078-1.154,3.078-1.154l.385,1.154v.77l-.769.385h-1.539v1.539a23.908,23.908,0,0,0,1.154,3.848s.385,1.154,1.154.769a5.149,5.149,0,0,1,1.924-.385l-.026,1.477-.358.062c-1.784.3-4.258.825-5.29,1.049a.467.467,0,0,0-.352.581c.313,1.139,1.1,4,1.409,4.912.385,1.154.77,1.154,1.154,1.154s.385-.77,0-2.309a14.42,14.42,0,0,1-.385-3.078,18.809,18.809,0,0,1,3.821-1.537l.026,2.306a7.973,7.973,0,0,1-2.308.77l.769,2.309c1.154-1.155,4.232-1.924,4.232-1.924v-1.539l-.009-.045a1.321,1.321,0,0,1,2.318.815c0,.77-1.539.77-1.539.77a5.426,5.426,0,0,0,1.924,1.154c1.154.385.769-1.154.769-1.924s-.769-1.539-1.924-1.924a1.537,1.537,0,0,0-1.924,1.154c0,.385-.385,0-.385,0l-.074-2.13a15.6,15.6,0,0,1,3.537-.178c3.078,0,2.693,1.154,2.693,2.693a3.9,3.9,0,0,1-2.309,3.463,5.726,5.726,0,0,1-2.693,0s3.078,2.309,4.233,3.078,1.154,0,1.154,0,.385-.77,1.154-2.693,1.154-5,1.539-5.771A.843.843,0,0,0,414.571,531.824Zm-8.85-4.617h1.924v-1.539h-1.924s0-1.539,1.154-1.539H408.8s.385,2.309-.385,3.078-.77,1.154-1.539,1.154h-1.154Zm-1.924,1.539-1.924.385s-.769-.769.385-1.154a6.066,6.066,0,0,1,1.539-.385Zm0-2.309h-2.308a.843.843,0,0,1,.385-1.154,5.148,5.148,0,0,1,1.924-.385Z" transform="translate(-351.854 -513.259)" fill="#fff"/>
        <path id="路径_166" data-name="路径 166" d="M255.023,525.656a2.012,2.012,0,0,0-2.309-1.154,12.258,12.258,0,0,1-3.848,0c0-1.154.77-1.539,1.924-2.693s-3.078-1.924-4.232-1.539a10.155,10.155,0,0,1-2.693.385,13.006,13.006,0,0,1,1.539-3.848c.77-1.154-.385-1.154-1.539-1.539a.79.79,0,0,0-1.154.769l-.77,5.772H240.4c-.769,0-1.154,2.309-1.154,2.309a.377.377,0,0,0,.385.385l1.924-1.154v2.693c0,.77-1.539.77-3.463,1.154s-1.154,1.155-1.154,1.155.385,1.539,1.154.769,3.848-1.539,8.08-2.309a15.756,15.756,0,0,1,8.08.385C255.408,527.58,255.023,526.041,255.023,525.656Zm-8.465-1.154a15.844,15.844,0,0,1-3.078,1.154l-.385-.385s0-2.693.77-2.693,2.309-.385,2.693-.385S246.943,524.117,246.558,524.5Z" transform="translate(-225.781 -514.787)" fill="#fff"/>
        <path id="路径_167" data-name="路径 167" d="M246.758,587.9a41.526,41.526,0,0,0-7.311,1.154v-2.693h4.232s.385-1.924-.385-1.924-3.463.385-3.463.385v-1.539s1.539,0,1.924-.385.77-2.309,1.539-3.078.385-1.539,0-1.539a6.742,6.742,0,0,0-3.848-.385,23.53,23.53,0,0,0-5.387,1.154c-.77.385-1.154.769-.77,1.154,0,0,1.539,3.463,2.693,3.463h1.539v1.539l-3.463.77s-1.539-.77-1.539,1.539V590.6s-2.693.385-3.463.385-.77.385-.77.385.77,1.924,1.924,1.539a23.824,23.824,0,0,1,7.7-1.539v5.387c0,.385-.77,1.154-.77,1.154s-.77.77.385,1.154,1.924.77,2.309.385-.385-7.7-.385-8.08,5.387-.77,6.541-.385,2.309,1.154,2.309,0S247.912,587.9,246.758,587.9Zm-9.234,1.154-2.309.385v-2.309l2.309-.385Zm-.77-6.926s-.385.385-.769-.385a2.976,2.976,0,0,1-.385-1.154s-.385-.77,1.154-1.154a16.923,16.923,0,0,1,3.463-.385v1.924Z" transform="translate(-219.055 -564.337)" fill="#fff"/>
      </g>
      <g id="组_324" data-name="组 324" transform="translate(1.293 38.681)">
        <path id="路径_176" data-name="路径 176" d="M156.336,876.574v-1.752h-2.925V874.4h6.365v.427h-2.964v1.752h3.4v.434h-7.247v-.434Zm.881-5.027h-1.381v.577a1.644,1.644,0,0,1-.133.748q-.468.933-2.457,1.118l-.156-.427a4.3,4.3,0,0,0,1.825-.491.96.96,0,0,0,.445-.947v-.577h-1.732l-.062.057v.862h-.476V871.2l.094-.085h3.12v-.541h.476v.541h3.4l.094.142a4.312,4.312,0,0,1-.343,1.324q-.218-.086-.445-.171.109-.342.226-.8l-.07-.057h-1.95V873.3a.421.421,0,0,0,.031.207.267.267,0,0,0,.25.085h1.295l.187-.028q.125-.057.351-.691l.437.142a2.012,2.012,0,0,1-.281.8.542.542,0,0,1-.538.171h-1.638a.3.3,0,0,1-.312-.085.57.57,0,0,1-.257-.548Z" transform="translate(-152.966 -870.436)" fill="#fff"/>
        <path id="路径_177" data-name="路径 177" d="M259.368,870.041a.138.138,0,0,1,.125.142v2.158q.031.142-.156.142h-2.3v4.052h-.476v-6.352a.2.2,0,0,1,.164-.142Zm-2.332,1h1.981v-.491l-.094-.085h-1.763l-.125.114Zm1.981.434h-1.981v.57h1.856q.164.036.125-.114Zm2.621,4.223h-3.5l-.063-.057V873.06l.063-.057h3.5l.062.057v2.585Zm-3.089-1.581h2.675v-.662l-.031-.028H258.58l-.031.028Zm2.675.435h-2.675v.719h2.644l.031-.028Zm1.576-2.072h-2.27l-.156-.142v-2.158a.192.192,0,0,1,.156-.142h2.59c.1.028.156.076.156.142v5.86a.342.342,0,0,1-.062.228.362.362,0,0,1-.218.178,2.607,2.607,0,0,1-1.576-.028l.062-.463a2.4,2.4,0,0,0,1.225.085l.062-.057.031-.114Zm-1.95-1.439h1.95v-.463l-.125-.114h-1.7l-.125.114Zm1.95.434h-1.95v.456q.031.149.125.114H262.8Z" transform="translate(-237.094 -870.005)" fill="#fff"/>
        <path id="路径_178" data-name="路径 178" d="M358.14,873.91a4.272,4.272,0,0,1-1.232,2.442l-.406-.235a4.015,4.015,0,0,0,1.295-2.984h-1.232V872.7H357.8v-1.346h-1.108v-.434H357.8v-1.068h.468v1.068h1.006v.434h-1.006V872.7h1.068v.434h-1.1v.142a20.742,20.742,0,0,1,1.2,2.158l-.413.171A13.322,13.322,0,0,0,358.14,873.91Zm2.457.114h-.757l-.062-.057v-3.824l.062-.057h3.432l.07.057v3.824l-.07.057h-.944v1.866l.125.085h.889l.094-.029a4.431,4.431,0,0,0,.094-.883l.468.142q-.062,1.011-.281,1.111a.367.367,0,0,1-.281.093H362.11a.223.223,0,0,1-.25-.207v-2.179h-.788v.406a1.634,1.634,0,0,1-.094.576,2.732,2.732,0,0,1-1.833,1.545l-.25-.377a2.735,2.735,0,0,0,.757-.314,1.528,1.528,0,0,0,.944-1.431Zm-.343-2.706h2.613v-.776l-.031-.028h-2.551l-.031.028Zm0,1.125h2.613v-.691h-2.613Zm2.613.434h-2.613v.719h2.582l.031-.029Z" transform="translate(-318.256 -869.851)" fill="#fff"/>
        <path id="路径_179" data-name="路径 179" d="M461.982,872.965v-.292h-1.771v-.37h1.771v-.32h-1.739v-.37h1.739v-.377h-2.051v-.37h2.051v-.32h-1.708v-.37h1.708v-.285h.468v.285h1.763q.133.028.133.142v.548h.437v.37h-.437v.634l-.133.114h-1.763v.32h1.864v.37h-1.864v.292h2.364v.37h-4.883v-.37Zm-2.051,2.813h4.789v.427h-4.789Zm4.282-.313h-3.939l-.062-.057V873.77l.062-.057h3.939l.07.057v1.638Zm-2.2-1.061v-.32h-1.295l-.031.029v.292Zm0,.691v-.32h-1.326v.32h1.326Zm.437-4.55v.32h1.42v-.228l-.062-.093Zm0,.691v.377h1.357l.062-.057v-.32Zm.031,2.848v.32h1.326v-.292l-.031-.029Zm0,.691v.32h1.295l.031-.028v-.292Zm2.683-4.344h.468v4.664h-.468Zm1.256-.541h.476v6.031a.424.424,0,0,1-.25.434,1.807,1.807,0,0,1-1.295,0v-.434a1.986,1.986,0,0,0,.819.114.306.306,0,0,0,.25-.114v-6.031Z" transform="translate(-402.25 -869.882)" fill="#fff"/>
      </g>
    </g>
  </g>
</svg>
