<svg xmlns="http://www.w3.org/2000/svg" xmlns:xlink="http://www.w3.org/1999/xlink" width="164" height="127" viewBox="0 0 164 127">
  <defs>
    <clipPath id="clip-path">
      <rect id="矩形_310" data-name="矩形 310" width="72" height="127" transform="translate(0 10)" fill="#fff"/>
    </clipPath>
  </defs>
  <g id="组_387" data-name="组 387" transform="translate(-1386 -11)">
    <g id="蒙版组_3" data-name="蒙版组 3" transform="translate(1386 1)" clip-path="url(#clip-path)">
      <path id="路径_2558" data-name="路径 2558" d="M1070.73,175.255V151.373l10.969-11.941-1.075-.933-19.572,22.2h-.431v.56l-7.527,8.209-7.313-7.836V160.7h-.645l-15.915-18.284-1.076.746,7.1,8.209v23.881l-7.742,9.515,1.29.933,6.452-7.836V190.18l-7.742,8.582,1.075.933,6.668-7.649v18.1l-7.742,8.769,1.29.933,6.668-7.836-.216,81.9h1.291V275.443h7.528v18.471h1.721l.215-14.926,4.947-5.037,1.506,1.493.215,18.471h1.291V275.443l1.29-1.493,5.377,5.224v14.739h1.72V275.443h7.313v18.471h1.076V211.636l4.947,5.784v76.494h1.505V280.667l4.731,9.142v4.1h1.291V270.033l2.043-1.959,1.4,1.772v24.068h1.505v-4.478l4.947-9.515.215,13.993h1.076V202.681Zm-34.089-22.109,7.312,8.023v14.739l-7.312-7.276Zm0,18.1,7.312,7.463V180.2l-7.312,8.209Zm0,55.785h3.656v2.239h-3.656Zm0,3.358h3.656v5.6h-3.656Zm0,6.717h3.656v9.142h-3.656Zm0,10.075h3.656v9.142h-3.656Zm0,10.262h3.656v9.142h-3.656Zm7.527,16.978h-7.527v-2.8h7.527Zm0-4.1h-7.527V267.7h7.527Zm0-3.731h-2.581v-9.142h2.581Zm0-10.261h-2.581v-9.142h2.581Zm0-10.075h-2.581V237.1h2.581Zm0-10.261h-2.581v-5.6h2.581Zm0-6.717h-2.581v-2.239h2.581Zm0-3.545h-7.527v-6.343h7.527Zm0-7.463h-7.527v-8.023l7.527-8.582Zm0-18.844-7.527,8.769V190.46l7.527-8.209Zm16.346-36.008v14.366l-.215.187-6.237-7.276Zm-6.667,78.173v-6.157l6.667-6.53v6.343Zm6.667-4.478v30.038l-3.011,3.172-3.656-3.358V243.633Zm-6.667-3.545v-6.344l6.667-6.53v6.157Zm0-8.209v-6.343l6.667-6.343v6.343Zm0-8.023v-6.343l6.667-6.717v6.53Zm0-8.023V202.96l6.667-6.53v6.343Zm0-8.209v-6.53l6.667-6.343v6.343Zm0-8.209v-6.157l6.667-6.157v5.784Zm-7.958-29.292,6.237,6.9v.56l-6.237,6.717Zm0,105.413,2.151,2.239-2.151,2.052Zm0,8.023v-1.866l3.011-2.985,1.075.933Zm6.667-3.358-.644-.56.644-.746Zm0-4.851V270.5l-1.72,1.679-.861-.933Zm0-1.866-3.441,3.358-3.226-3.172V237.1l6.667,6.53Zm0-25.374-6.667-6.343v-6.343l6.667,6.53Zm0-8.023-6.667-6.53v-6.343l6.667,6.53Zm0-8.209-6.667-6.343v-6.343l6.667,6.343Zm0-8.209-6.667-6.343V204.64l6.667,6.343Zm0-7.836-6.667-6.53v-6.53l6.667,6.717Zm0-8.209-6.667-6.53v-6.343l6.667,6.53Zm0-8.209-6.667-6.53v-5.784l6.667,6.343Zm-5.592-14.179,6.238-6.9,6.237,7.09-6.237,5.97Zm6.883,94.965v-1.493l.645.746Zm1.506-1.493-1.506-1.493v-2.052l2.366,2.612Zm5.162,4.851-4.086-4.1.645-.746,3.441,3.172Zm.107-3.452-2.151-1.866v-.746l2.151-2.052Zm1.613-46.549h2.366v2.239h-2.366Zm0,3.358h2.366v5.6h-2.366Zm0,6.717h2.366v9.142h-2.366Zm0,10.261h2.366v8.955h-2.366Zm0,10.075h2.366v9.142h-2.366Zm7.313,16.791h-7.312v-2.612h7.313Zm0-3.918h-7.312V267.7h7.313Zm0-3.731h-3.441v-9.142h3.441Zm0-10.261h-3.441v-8.955h3.441Zm0-10.075h-3.441V237.1h3.441Zm0-10.261h-3.441v-5.6h3.441Zm0-6.717h-3.441v-2.239h3.441Zm0-3.545h-7.312v-6.343h7.313Zm0-7.463h-7.312v-16.6l7.313,8.769Zm0-10.075-7.312-8.582V182.251l7.313,8.023Zm0-19.777-7.312-8.4v-1.306l7.313-7.276Zm0-19.777-7.312,7.276V161.355l7.313-8.209Zm1.29,8.955,3.871,4.664v11.941l-3.871-4.1Zm6.022,38.807-6.022-6.53V192.139l13.55,15.3Zm6.452,9.888,1.075,1.119-1.075,1.12Zm-.215,19.963,1.076,1.119-1.076,1.119Zm-5.377-8.4h4.086V242.7Zm4.086,6.9v5.224l-4.517,5.037v-15.3Zm-4.086-8.023,4.086-4.851v4.851Zm-.43-1.679V219.379l4.517,5.224v5.411Zm4.732,51.68-4.517-9.142h4.517Zm0-10.261h-4.086l4.086-4.664Zm0-6.717-4.732,5.224V259.492l4.732,5.411Zm0-6.717-4.517-5.224h4.517Zm0-6.343h-4.3l4.3-4.851Zm0-34.143-3.871-4.478h3.871Zm0-5.6h-3.656l3.656-4.291Zm1.075,51.68v-2.8l1.29,1.306Zm3.441-.56-.645-.746.645-.933Zm0-3.545-1.505,1.679-1.936-2.052.215-13.993,1.721-1.866,1.505,1.679Zm0-16.418-.645-.746.645-.56Zm0-3.545-1.505,1.679-1.721-1.866V230.386l1.721-2.052,1.505,1.866Zm0-16.418-.645-.746.645-.746Zm0-3.358-1.29,1.493-1.936-2.052V210.8l1.936-2.425,1.29,1.493Zm0-16.978L1076,196.057V183.744l10.539,12.314Zm1.505,3.731,4.517,5.224h-4.517Zm0,6.343h4.517l-4.517,5.037Zm0,13.993,4.3,4.851h-4.3Zm0,5.97h4.3l-4.3,4.851Zm0,48.882v-9.142h4.947Zm0-10.075v-4.851l4.517,4.851Zm5.162-1.119-5.162-5.6v-5.224l5.162-5.6Zm-.86-17.724-4.3,5.037v-5.037Zm-4.3-1.119v-4.664l4.3,4.664Zm5.162-.933s-4.947-5.411-5.162-5.784a42.357,42.357,0,0,1,0-5.224l5.162-5.784Zm0-19.963-5.162-5.97v-5.037l5.162-5.784Zm0-20.336-5.162-5.784V197.923l5.162,5.97Z" transform="translate(-1027.5 -127.222)" fill="#fff"/>
    </g>
    <g id="组_386" data-name="组 386" transform="translate(1471.962 85.415)">
      <g id="组_305" data-name="组 305" transform="translate(0 0)">
        <path id="路径_160" data-name="路径 160" d="M184,550.256a12.218,12.218,0,0,0,3.121-1.783,35.578,35.578,0,0,0,2.675-3.567l4.013-5.35,2.229,2.229-5.8,6.242v.892s2.229,0,3.121-.892,2.675-3.121,2.675-3.121l2.229,1.338-6.688,6.688s-.446.892.892.446,2.229-2.675,3.567-2.675,3.567,2.23,3.567,2.675,0,.892-1.783,1.337l-1.784.446a1.932,1.932,0,0,0,.892-1.783c0-1.337-1.338-1.783-1.783-1.337s-.892.892-.446,1.783.446,1.783-.446,1.783a6,6,0,0,0-3.567.891,23.1,23.1,0,0,1-2.229,1.338v7.134l-3.567-1.783a56.823,56.823,0,0,0,3.121-5.35,14.85,14.85,0,0,0-1.338-2.675,7.984,7.984,0,0,0,3.121-2.229c.892-1.338,1.783-1.784.892-1.784s-4.013.892-4.459,1.784Z" transform="translate(-184 -533.202)" fill="#fff"/>
        <path id="路径_161" data-name="路径 161" d="M211.735,613.371s1.338,2.675,2.229,3.121,1.338,1.338.446,1.338-2.675,0-3.121-1.338A4.921,4.921,0,0,1,211.735,613.371Z" transform="translate(-204.601 -589.183)" fill="#fff"/>
        <path id="路径_162" data-name="路径 162" d="M226.444,610.572s.446,2.229,1.338,2.229,2.229,0,2.229-.446a3.955,3.955,0,0,0-1.784-2.229C227.336,609.68,226.444,609.234,226.444,610.572Z" transform="translate(-216.189 -586.384)" fill="#fff"/>
        <path id="路径_163" data-name="路径 163" d="M374.724,553.977c1.337,2.675,1.337,3.121,1.784,3.567s1.783,2.229-.446,2.229-4.459-1.337-4.012-3.567.446-4.9,2.675-2.675Z" transform="translate(-326.572 -543.166)" fill="#fff"/>
        <path id="路径_164" data-name="路径 164" d="M397.778,610.182c.446-1.338-9.809-2.675-11.146-2.675s-12.93-4.013-14.267-4.013-3.121-3.567-3.121-3.567-.892-2.229,0-3.121,1.783-1.337.446-2.229-2.675-2.229-3.121-1.783-.185,1.432-.185,1.432c0,2.675.185,3.918,1.077,5.255s2.675,3.567,0,4.013a30.027,30.027,0,0,1-4.459.446s0-.446.446,1.338,1.337,2.229,3.121,1.337,7.134-.891,9.363,0a22.067,22.067,0,0,0,5.8,1.784c2.675.446,3.567,2.229,4.459,3.121s5.35.446,5.35.446,5.8-.446,6.242-1.784" transform="translate(-319.754 -573.511)" fill="#fff"/>
        <path id="路径_165" data-name="路径 165" d="M417.508,534.771a5.341,5.341,0,0,0-3.567-1.338,48.457,48.457,0,0,0-6.688.892v-1.783a.437.437,0,0,1,.446-.446c.446,0,4.013,0,4.013-.446a12.438,12.438,0,0,1,2.229-4.013c1.337-1.783.892-1.783-.446-2.675s-4.013-.446-4.013-.892a1.674,1.674,0,0,1,1.784-1.783h5.35v-2.675l-5.35.446a41.948,41.948,0,0,1,1.783-4.459c.892-1.783-.446-1.783-1.783-2.229s-1.338.446-1.338,2.675-1.784,8.471-2.229,8.917-1.784.446-1.784.446-1.337,0-1.337-.446a10.115,10.115,0,0,0-.446-1.783s0-4.458.446-4.9,0-.892-1.338-1.338-1.871-.562-1.871-.117.088,2.792.088,2.792v2.229s-2.675.446-4.458.892-.446.892-.446.892a6.42,6.42,0,0,0,.892,1.337c.446.446.446.892,1.338,0s3.567-1.337,3.567-1.337l.446,1.337v.892l-.891.446h-1.784v1.783a27.708,27.708,0,0,0,1.337,4.459s.446,1.337,1.338.891a5.966,5.966,0,0,1,2.229-.446l-.03,1.712-.415.072c-2.067.345-4.934.955-6.129,1.215a.541.541,0,0,0-.408.673c.362,1.319,1.279,4.63,1.633,5.691.446,1.337.892,1.337,1.338,1.337s.446-.892,0-2.675a16.707,16.707,0,0,1-.446-3.567,21.8,21.8,0,0,1,4.428-1.781l.03,2.673a9.243,9.243,0,0,1-2.675.892l.892,2.675c1.338-1.338,4.9-2.229,4.9-2.229v-1.784l-.011-.052a1.531,1.531,0,0,1,2.686.944c0,.892-1.783.892-1.783.892a6.288,6.288,0,0,0,2.229,1.338c1.337.446.891-1.338.891-2.229s-.891-1.783-2.229-2.229a1.781,1.781,0,0,0-2.229,1.337c0,.446-.446,0-.446,0l-.085-2.468a18.08,18.08,0,0,1,4.1-.207c3.567,0,3.121,1.338,3.121,3.121a4.516,4.516,0,0,1-2.675,4.013,6.636,6.636,0,0,1-3.121,0s3.567,2.675,4.9,3.567,1.338,0,1.338,0,.446-.892,1.337-3.121,1.338-5.8,1.783-6.687A.977.977,0,0,0,417.508,534.771Zm-10.255-5.35h2.229v-1.783h-2.229s0-1.783,1.338-1.783h2.229s.446,2.675-.446,3.567-.892,1.338-1.784,1.338h-1.338Zm-2.229,1.783-2.229.446s-.891-.892.446-1.337a7.028,7.028,0,0,1,1.783-.446Zm0-2.675h-2.675a.976.976,0,0,1,.446-1.337,5.966,5.966,0,0,1,2.229-.446Z" transform="translate(-344.834 -513.259)" fill="#fff"/>
        <path id="路径_166" data-name="路径 166" d="M257.918,527.318a2.331,2.331,0,0,0-2.675-1.337c-1.338.446-4.459,0-4.459,0,0-1.337.892-1.783,2.229-3.121s-3.567-2.229-4.9-1.783a11.767,11.767,0,0,1-3.121.446,15.072,15.072,0,0,1,1.783-4.458c.892-1.338-.446-1.338-1.783-1.783a.916.916,0,0,0-1.337.891l-.892,6.688h-1.784c-.892,0-1.337,2.675-1.337,2.675a.437.437,0,0,0,.446.446l2.229-1.337v3.121c0,.892-1.784.892-4.013,1.338s-1.338,1.338-1.338,1.338.446,1.783,1.338.891,4.459-1.783,9.363-2.675a18.256,18.256,0,0,1,9.363.446C258.364,529.547,257.918,527.764,257.918,527.318Zm-9.809-1.337a18.359,18.359,0,0,1-3.567,1.337l-.446-.446s0-3.121.892-3.121,2.675-.446,3.121-.446S248.555,525.535,248.109,525.981Z" transform="translate(-224.033 -514.723)" fill="#fff"/>
        <path id="路径_167" data-name="路径 167" d="M249.69,589.509a48.124,48.124,0,0,0-8.471,1.338v-3.121h4.9s.446-2.229-.446-2.229-4.013.446-4.013.446v-1.783s1.783,0,2.229-.446.892-2.675,1.784-3.567.446-1.783,0-1.783a7.813,7.813,0,0,0-4.459-.446,27.266,27.266,0,0,0-6.242,1.338c-.892.446-1.338.891-.892,1.337,0,0,1.784,4.013,3.121,4.013h1.783v1.783l-4.013.892s-1.784-.892-1.784,1.783v3.567s-3.121.446-4.013.446-.892.446-.892.446.892,2.229,2.229,1.783a27.607,27.607,0,0,1,8.917-1.783v6.242c0,.446-.892,1.337-.892,1.337s-.892.892.446,1.337,2.229.892,2.675.446-.446-8.917-.446-9.363,6.242-.892,7.58-.446,2.675,1.338,2.675,0S251.028,589.509,249.69,589.509Zm-10.7,1.338-2.675.446v-2.675l2.675-.446Zm-.892-8.025s-.446.446-.892-.446a3.449,3.449,0,0,1-.446-1.337s-.446-.892,1.337-1.338a19.611,19.611,0,0,1,4.013-.446v2.229Z" transform="translate(-217.589 -562.201)" fill="#fff"/>
      </g>
      <g id="组_324" data-name="组 324" transform="translate(1.499 44.821)">
        <path id="路径_176" data-name="路径 176" d="M156.87,877.527V875.5h-3.389V875h7.375v.495h-3.435v2.03h3.941v.5h-8.4v-.5Zm1.021-5.825h-1.6v.668a1.905,1.905,0,0,1-.154.867q-.542,1.081-2.847,1.3l-.181-.495a4.986,4.986,0,0,0,2.115-.57,1.113,1.113,0,0,0,.515-1.1V871.7h-2.007l-.072.066v1h-.551V871.3l.108-.1h3.616v-.627h.551v.627h3.941l.109.165a5,5,0,0,1-.4,1.535q-.253-.1-.515-.2.126-.4.262-.932l-.081-.066h-2.26v2.03a.487.487,0,0,0,.036.239.31.31,0,0,0,.289.1h1.5l.217-.033q.144-.066.407-.8l.506.165a2.329,2.329,0,0,1-.325.932.629.629,0,0,1-.624.2h-1.9a.346.346,0,0,1-.362-.1.66.66,0,0,1-.3-.635Z" transform="translate(-152.966 -870.414)" fill="#fff"/>
        <path id="路径_177" data-name="路径 177" d="M259.814,870.041a.16.16,0,0,1,.145.165v2.5q.036.165-.181.165h-2.666v4.695h-.552v-7.36a.227.227,0,0,1,.19-.165Zm-2.7,1.163h2.3v-.569l-.108-.1h-2.043l-.145.132Zm2.3.5h-2.3v.66h2.151q.19.041.145-.132Zm3.037,4.893h-4.058l-.073-.066v-3l.073-.066h4.058l.072.066v3Zm-3.579-1.832h3.1V874l-.036-.033H258.9l-.036.033Zm3.1.5h-3.1v.833h3.064l.036-.033Zm1.826-2.4h-2.63l-.181-.165v-2.5a.223.223,0,0,1,.181-.165h3q.181.049.181.165V877a.4.4,0,0,1-.072.264.419.419,0,0,1-.253.206,3.023,3.023,0,0,1-1.826-.033l.072-.536a2.783,2.783,0,0,0,1.419.1l.072-.066.036-.132Zm-2.26-1.667h2.26v-.536l-.145-.132h-1.97l-.145.132Zm2.26.5h-2.26v.528q.036.173.145.132h2.115Z" transform="translate(-234.004 -870)" fill="#fff"/>
        <path id="路径_178" data-name="路径 178" d="M358.4,874.554a4.95,4.95,0,0,1-1.428,2.83l-.47-.272a4.653,4.653,0,0,0,1.5-3.457h-1.428v-.5H358v-1.559h-1.284v-.5H358v-1.238h.542v1.238h1.166v.5h-1.166v1.559h1.238v.5h-1.274v.165a24.032,24.032,0,0,1,1.392,2.5l-.479.2A15.462,15.462,0,0,0,358.4,874.554Zm2.847.132h-.877l-.072-.066v-4.431l.072-.066h3.977l.081.066v4.431l-.081.066h-1.094v2.162l.145.1h1.03l.108-.033a5.138,5.138,0,0,0,.108-1.023l.542.165q-.072,1.171-.325,1.287a.425.425,0,0,1-.326.107H363a.258.258,0,0,1-.289-.239v-2.525H361.8v.47a1.894,1.894,0,0,1-.108.668,3.166,3.166,0,0,1-2.124,1.791l-.289-.437a3.169,3.169,0,0,0,.877-.363,1.77,1.77,0,0,0,1.094-1.658Zm-.4-3.135h3.028v-.9l-.036-.033h-2.956l-.036.033Zm0,1.3h3.028v-.8H360.85Zm3.028.5H360.85v.833h2.992l.036-.033Z" transform="translate(-312.184 -869.851)" fill="#fff"/>
        <path id="路径_179" data-name="路径 179" d="M462.308,873.453v-.338h-2.052v-.429h2.052v-.371h-2.016v-.429h2.016v-.437h-2.377v-.429h2.377v-.371h-1.979v-.429h1.979v-.33h.542v.33h2.043q.154.033.154.165v.635h.506v.429h-.506v.734l-.154.132H462.85v.371h2.16v.429h-2.16v.338h2.739v.429h-5.658v-.429Zm-2.377,3.259h5.549v.5h-5.549Zm4.962-.363h-4.565l-.072-.066v-1.9l.072-.066h4.565l.081.066v1.9Zm-2.549-1.229v-.371h-1.5l-.036.033v.338Zm0,.8v-.371h-1.536v.371h1.536Zm.506-5.272v.371H464.5v-.264l-.072-.107Zm0,.8v.437h1.573l.072-.066v-.371Zm.036,3.3v.371h1.537v-.338l-.036-.033Zm0,.8v.371h1.5l.036-.033v-.338ZM466,870.516h.542v5.4H466Zm1.455-.627H468v6.989a.491.491,0,0,1-.289.5,2.094,2.094,0,0,1-1.5,0v-.5a2.3,2.3,0,0,0,.949.132.355.355,0,0,0,.289-.132v-6.989Z" transform="translate(-393.093 -869.881)" fill="#fff"/>
      </g>
    </g>
  </g>
</svg>
