<svg xmlns="http://www.w3.org/2000/svg" xmlns:xlink="http://www.w3.org/1999/xlink" width="125.544" height="74" viewBox="0 0 125.544 74">
  <defs>
    <clipPath id="clip-path">
      <rect id="矩形_303" data-name="矩形 303" width="41" height="74" transform="translate(0 5)" fill="#efece8"/>
    </clipPath>
  </defs>
  <g id="组_389" data-name="组 389" transform="translate(-3065 165)">
    <g id="蒙版组_2" data-name="蒙版组 2" transform="translate(3065 -170)" clip-path="url(#clip-path)">
      <path id="路径_159" data-name="路径 159" d="M1052.428,159.694V145.923l6.325-6.885-.62-.538-11.286,12.8h-.248v.323l-4.341,4.734-4.217-4.519V151.3h-.372l-9.177-10.543-.62.43,4.093,4.734v13.771l-4.465,5.487.744.538,3.721-4.519v7.1l-4.465,4.949.62.538,3.845-4.411v10.436l-4.465,5.057.744.538,3.845-4.519-.124,47.23h.744V217.467h4.341v10.651h.992l.124-8.607,2.852-2.9.868.861.124,10.651h.744V217.467l.744-.861,3.1,3.012v8.5h.992V217.467h4.217v10.651h.62V180.673l2.853,3.335v44.11h.868V220.48l2.728,5.272v2.367h.744V214.347l1.178-1.13.806,1.022v13.879h.868v-2.582l2.853-5.487.124,8.069h.62V175.509Zm-19.657-12.749,4.217,4.626v8.5l-4.217-4.2Zm0,10.436,4.217,4.3v.861l-4.217,4.734Zm0,32.168h2.108v1.291h-2.108Zm0,1.937h2.108v3.228h-2.108Zm0,3.873h2.108v5.272h-2.108Zm0,5.81h2.108v5.272h-2.108Zm0,5.917h2.108v5.272h-2.108Zm4.341,9.79h-4.341v-1.614h4.341Zm0-2.367h-4.341V213h4.341Zm0-2.152h-1.488v-5.272h1.488Zm0-5.917h-1.488v-5.272h1.488Zm0-5.81h-1.488v-5.272h1.488Zm0-5.917h-1.488v-3.228h1.488Zm0-3.873h-1.488v-1.291h1.488Zm0-2.044h-4.341v-3.658h4.341Zm0-4.3h-4.341v-4.626l4.341-4.949Zm0-10.866-4.341,5.057V168.462l4.341-4.734Zm9.426-20.764v8.284l-.124.108-3.6-4.2Zm-3.845,45.078v-3.55l3.845-3.765v3.658Zm3.845-2.582V212.68l-1.736,1.829-2.108-1.936V199.124Zm-3.845-2.044v-3.658l3.845-3.765v3.55Zm0-4.734v-3.658l3.845-3.658v3.658Zm0-4.626V180.3l3.845-3.873v3.765Zm0-4.626v-3.658l3.845-3.766v3.658Zm0-4.734v-3.765l3.845-3.658v3.658Zm0-4.734v-3.55l3.845-3.55V166.1ZM1038.1,152.97l3.6,3.981v.323l-3.6,3.873Zm0,60.786,1.24,1.291-1.24,1.183Zm0,4.626v-1.076l1.736-1.721.62.538Zm3.844-1.937-.371-.323.371-.43Zm0-2.8v.968l-.992.968-.5-.538Zm0-1.076-1.984,1.936-1.86-1.829V195.359l3.844,3.765Zm0-14.632-3.844-3.658v-3.658l3.844,3.765Zm0-4.626-3.844-3.765v-3.658l3.844,3.765Zm0-4.734-3.844-3.658v-3.658l3.844,3.658Zm0-4.734-3.844-3.658v-3.55l3.844,3.658Zm0-4.519-3.844-3.765V171.8l3.844,3.873Zm0-4.734-3.844-3.765v-3.658l3.844,3.765Zm0-4.734L1038.1,166.1V162.76l3.844,3.658Zm-3.224-8.176,3.6-3.981,3.6,4.088-3.6,3.443Zm3.969,54.761v-.861l.372.43Zm.868-.861-.868-.861v-1.183l1.364,1.506Zm2.976,2.8-2.356-2.367.372-.43,1.984,1.829Zm.062-1.99-1.24-1.076v-.43l1.24-1.183Zm.93-26.842h1.365v1.291h-1.365Zm0,1.937h1.365v3.228h-1.365Zm0,3.873h1.365v5.272h-1.365Zm0,5.917h1.365v5.164h-1.365Zm0,5.81h1.365v5.272h-1.365Zm4.217,9.683h-4.217v-1.506h4.217Zm0-2.259h-4.217V213h4.217Zm0-2.152h-1.984v-5.272h1.984Zm0-5.917h-1.984v-5.164h1.984Zm0-5.81h-1.984v-5.272h1.984Zm0-5.917h-1.984v-3.228h1.984Zm0-3.873h-1.984v-1.291h1.984Zm0-2.044h-4.217v-3.658h4.217Zm0-4.3h-4.217v-9.575l4.217,5.057Zm0-5.81-4.217-4.949V163.729l4.217,4.626Zm0-11.4-4.217-4.841v-.753l4.217-4.2Zm0-11.4-4.217,4.2v-8.392l4.217-4.734Zm.744,5.164,2.232,2.69v6.885l-2.232-2.367Zm3.473,22.378-3.473-3.765V169.431l7.813,8.822Zm3.721,5.7.62.646-.62.646Zm-.124,11.512.62.646-.62.646Zm-3.1-4.841h2.356v2.8Zm2.356,3.981v3.012l-2.6,2.9v-8.822Zm-2.356-4.626,2.356-2.8v2.8Zm-.248-.968v-9.037l2.6,3.012v3.12Zm2.729,29.8-2.6-5.272h2.6Zm0-5.917h-2.356l2.356-2.69Zm0-3.873-2.729,3.012v-8.93l2.729,3.12Zm0-3.873-2.6-3.012h2.6Zm0-3.658h-2.48l2.48-2.8Zm0-19.688-2.232-2.582h2.232Zm0-3.228h-2.108l2.108-2.474Zm.62,29.8v-1.614l.744.753Zm1.984-.323-.372-.43.372-.538Zm0-2.044-.868.968-1.116-1.183.124-8.069.992-1.076.868.968Zm0-9.467-.372-.43.372-.323Zm0-2.044-.868.968-.992-1.076v-8.069l.992-1.183.868,1.076Zm0-9.467-.372-.43.372-.43Zm0-1.937-.744.861-1.116-1.183v-7.746l1.116-1.4.744.861Zm0-9.79-6.077-6.778v-7.1l6.077,7.1Zm.868,2.152,2.6,3.012h-2.6Zm0,3.658h2.6l-2.6,2.9Zm0,8.069,2.481,2.8h-2.481Zm0,3.443h2.481l-2.481,2.8Zm0,28.187V218.7h2.853Zm0-5.81v-2.8l2.6,2.8Zm2.977-.646-2.977-3.228v-3.012l2.977-3.228Zm-.5-10.221-2.481,2.9v-2.9Zm-2.481-.645v-2.69l2.481,2.69Zm2.977-.538s-2.853-3.12-2.977-3.335a24.415,24.415,0,0,1,0-3.012l2.977-3.335Zm0-11.512-2.977-3.443v-2.9l2.977-3.335Zm0-11.727-2.977-3.335v-6.778l2.977,3.443Z" transform="translate(-1027.5 -131.997)" fill="#1b232a"/>
    </g>
    <g id="组_377" data-name="组 377" transform="translate(3112.506 -148.058)">
      <g id="组_305" data-name="组 305" transform="translate(0 0)">
        <path id="路径_160" data-name="路径 160" d="M184,550.256a12.218,12.218,0,0,0,3.121-1.783,35.578,35.578,0,0,0,2.675-3.567l4.013-5.35,2.229,2.229-5.8,6.242v.892s2.229,0,3.121-.892,2.675-3.121,2.675-3.121l2.229,1.338-6.688,6.688s-.446.892.892.446,2.229-2.675,3.567-2.675,3.567,2.23,3.567,2.675,0,.892-1.783,1.337l-1.784.446a1.932,1.932,0,0,0,.892-1.783c0-1.337-1.338-1.783-1.783-1.337s-.892.892-.446,1.783.446,1.783-.446,1.783a6,6,0,0,0-3.567.891,23.1,23.1,0,0,1-2.229,1.338v7.134l-3.567-1.783a56.823,56.823,0,0,0,3.121-5.35,14.85,14.85,0,0,0-1.338-2.675,7.984,7.984,0,0,0,3.121-2.229c.892-1.338,1.783-1.784.892-1.784s-4.013.892-4.459,1.784Z" transform="translate(-184 -533.202)" fill="#1b232a"/>
        <path id="路径_161" data-name="路径 161" d="M211.735,613.371s1.338,2.675,2.229,3.121,1.338,1.338.446,1.338-2.675,0-3.121-1.338A4.921,4.921,0,0,1,211.735,613.371Z" transform="translate(-204.601 -589.183)" fill="#1b232a"/>
        <path id="路径_162" data-name="路径 162" d="M226.444,610.572s.446,2.229,1.338,2.229,2.229,0,2.229-.446a3.955,3.955,0,0,0-1.784-2.229C227.336,609.68,226.444,609.234,226.444,610.572Z" transform="translate(-216.189 -586.384)" fill="#1b232a"/>
        <path id="路径_163" data-name="路径 163" d="M374.724,553.977c1.337,2.675,1.337,3.121,1.784,3.567s1.783,2.229-.446,2.229-4.459-1.337-4.012-3.567.446-4.9,2.675-2.675Z" transform="translate(-326.572 -543.166)" fill="#1b232a"/>
        <path id="路径_164" data-name="路径 164" d="M397.778,610.182c.446-1.338-9.809-2.675-11.146-2.675s-12.93-4.013-14.267-4.013-3.121-3.567-3.121-3.567-.892-2.229,0-3.121,1.783-1.337.446-2.229-2.675-2.229-3.121-1.783-.185,1.432-.185,1.432c0,2.675.185,3.918,1.077,5.255s2.675,3.567,0,4.013a30.027,30.027,0,0,1-4.459.446s0-.446.446,1.338,1.337,2.229,3.121,1.337,7.134-.891,9.363,0a22.067,22.067,0,0,0,5.8,1.784c2.675.446,3.567,2.229,4.459,3.121s5.35.446,5.35.446,5.8-.446,6.242-1.784" transform="translate(-319.754 -573.511)" fill="#1b232a"/>
        <path id="路径_165" data-name="路径 165" d="M417.508,534.771a5.341,5.341,0,0,0-3.567-1.338,48.457,48.457,0,0,0-6.688.892v-1.783a.437.437,0,0,1,.446-.446c.446,0,4.013,0,4.013-.446a12.438,12.438,0,0,1,2.229-4.013c1.337-1.783.892-1.783-.446-2.675s-4.013-.446-4.013-.892a1.674,1.674,0,0,1,1.784-1.783h5.35v-2.675l-5.35.446a41.948,41.948,0,0,1,1.783-4.459c.892-1.783-.446-1.783-1.783-2.229s-1.338.446-1.338,2.675-1.784,8.471-2.229,8.917-1.784.446-1.784.446-1.337,0-1.337-.446a10.115,10.115,0,0,0-.446-1.783s0-4.458.446-4.9,0-.892-1.338-1.338-1.871-.562-1.871-.117.088,2.792.088,2.792v2.229s-2.675.446-4.458.892-.446.892-.446.892a6.42,6.42,0,0,0,.892,1.337c.446.446.446.892,1.338,0s3.567-1.337,3.567-1.337l.446,1.337v.892l-.891.446h-1.784v1.783a27.708,27.708,0,0,0,1.337,4.459s.446,1.337,1.338.891a5.966,5.966,0,0,1,2.229-.446l-.03,1.712-.415.072c-2.067.345-4.934.955-6.129,1.215a.541.541,0,0,0-.408.673c.362,1.319,1.279,4.63,1.633,5.691.446,1.337.892,1.337,1.338,1.337s.446-.892,0-2.675a16.707,16.707,0,0,1-.446-3.567,21.8,21.8,0,0,1,4.428-1.781l.03,2.673a9.243,9.243,0,0,1-2.675.892l.892,2.675c1.338-1.338,4.9-2.229,4.9-2.229v-1.784l-.011-.052a1.531,1.531,0,0,1,2.686.944c0,.892-1.783.892-1.783.892a6.288,6.288,0,0,0,2.229,1.338c1.337.446.891-1.338.891-2.229s-.891-1.783-2.229-2.229a1.781,1.781,0,0,0-2.229,1.337c0,.446-.446,0-.446,0l-.085-2.468a18.08,18.08,0,0,1,4.1-.207c3.567,0,3.121,1.338,3.121,3.121a4.516,4.516,0,0,1-2.675,4.013,6.636,6.636,0,0,1-3.121,0s3.567,2.675,4.9,3.567,1.338,0,1.338,0,.446-.892,1.337-3.121,1.338-5.8,1.783-6.687A.977.977,0,0,0,417.508,534.771Zm-10.255-5.35h2.229v-1.783h-2.229s0-1.783,1.338-1.783h2.229s.446,2.675-.446,3.567-.892,1.338-1.784,1.338h-1.338Zm-2.229,1.783-2.229.446s-.891-.892.446-1.337a7.028,7.028,0,0,1,1.783-.446Zm0-2.675h-2.675a.976.976,0,0,1,.446-1.337,5.966,5.966,0,0,1,2.229-.446Z" transform="translate(-344.834 -513.259)" fill="#1b232a"/>
        <path id="路径_166" data-name="路径 166" d="M257.918,527.318a2.331,2.331,0,0,0-2.675-1.337c-1.338.446-4.459,0-4.459,0,0-1.337.892-1.783,2.229-3.121s-3.567-2.229-4.9-1.783a11.767,11.767,0,0,1-3.121.446,15.072,15.072,0,0,1,1.783-4.458c.892-1.338-.446-1.338-1.783-1.783a.916.916,0,0,0-1.337.891l-.892,6.688h-1.784c-.892,0-1.337,2.675-1.337,2.675a.437.437,0,0,0,.446.446l2.229-1.337v3.121c0,.892-1.784.892-4.013,1.338s-1.338,1.338-1.338,1.338.446,1.783,1.338.891,4.459-1.783,9.363-2.675a18.256,18.256,0,0,1,9.363.446C258.364,529.547,257.918,527.764,257.918,527.318Zm-9.809-1.337a18.359,18.359,0,0,1-3.567,1.337l-.446-.446s0-3.121.892-3.121,2.675-.446,3.121-.446S248.555,525.535,248.109,525.981Z" transform="translate(-224.033 -514.723)" fill="#1b232a"/>
        <path id="路径_167" data-name="路径 167" d="M249.69,589.509a48.124,48.124,0,0,0-8.471,1.338v-3.121h4.9s.446-2.229-.446-2.229-4.013.446-4.013.446v-1.783s1.783,0,2.229-.446.892-2.675,1.784-3.567.446-1.783,0-1.783a7.813,7.813,0,0,0-4.459-.446,27.266,27.266,0,0,0-6.242,1.338c-.892.446-1.338.891-.892,1.337,0,0,1.784,4.013,3.121,4.013h1.783v1.783l-4.013.892s-1.784-.892-1.784,1.783v3.567s-3.121.446-4.013.446-.892.446-.892.446.892,2.229,2.229,1.783a27.607,27.607,0,0,1,8.917-1.783v6.242c0,.446-.892,1.337-.892,1.337s-.892.892.446,1.337,2.229.892,2.675.446-.446-8.917-.446-9.363,6.242-.892,7.58-.446,2.675,1.338,2.675,0S251.028,589.509,249.69,589.509Zm-10.7,1.338-2.675.446v-2.675l2.675-.446Zm-.892-8.025s-.446.446-.892-.446a3.449,3.449,0,0,1-.446-1.337s-.446-.892,1.337-1.338a19.611,19.611,0,0,1,4.013-.446v2.229Z" transform="translate(-217.589 -562.201)" fill="#1b232a"/>
      </g>
      <g id="组_324" data-name="组 324" transform="translate(1.499 44.821)">
        <path id="路径_176" data-name="路径 176" d="M156.87,877.527V875.5h-3.389V875h7.375v.495h-3.435v2.03h3.941v.5h-8.4v-.5Zm1.021-5.825h-1.6v.668a1.905,1.905,0,0,1-.154.867q-.542,1.081-2.847,1.3l-.181-.495a4.986,4.986,0,0,0,2.115-.57,1.113,1.113,0,0,0,.515-1.1V871.7h-2.007l-.072.066v1h-.551V871.3l.108-.1h3.616v-.627h.551v.627h3.941l.109.165a5,5,0,0,1-.4,1.535q-.253-.1-.515-.2.126-.4.262-.932l-.081-.066h-2.26v2.03a.487.487,0,0,0,.036.239.31.31,0,0,0,.289.1h1.5l.217-.033q.144-.066.407-.8l.506.165a2.329,2.329,0,0,1-.325.932.629.629,0,0,1-.624.2h-1.9a.346.346,0,0,1-.362-.1.66.66,0,0,1-.3-.635Z" transform="translate(-152.966 -870.414)" fill="#1b232a"/>
        <path id="路径_177" data-name="路径 177" d="M259.814,870.041a.16.16,0,0,1,.145.165v2.5q.036.165-.181.165h-2.666v4.695h-.552v-7.36a.227.227,0,0,1,.19-.165Zm-2.7,1.163h2.3v-.569l-.108-.1h-2.043l-.145.132Zm2.3.5h-2.3v.66h2.151q.19.041.145-.132Zm3.037,4.893h-4.058l-.073-.066v-3l.073-.066h4.058l.072.066v3Zm-3.579-1.832h3.1V874l-.036-.033H258.9l-.036.033Zm3.1.5h-3.1v.833h3.064l.036-.033Zm1.826-2.4h-2.63l-.181-.165v-2.5a.223.223,0,0,1,.181-.165h3q.181.049.181.165V877a.4.4,0,0,1-.072.264.419.419,0,0,1-.253.206,3.023,3.023,0,0,1-1.826-.033l.072-.536a2.783,2.783,0,0,0,1.419.1l.072-.066.036-.132Zm-2.26-1.667h2.26v-.536l-.145-.132h-1.97l-.145.132Zm2.26.5h-2.26v.528q.036.173.145.132h2.115Z" transform="translate(-234.004 -870)" fill="#1b232a"/>
        <path id="路径_178" data-name="路径 178" d="M358.4,874.554a4.95,4.95,0,0,1-1.428,2.83l-.47-.272a4.653,4.653,0,0,0,1.5-3.457h-1.428v-.5H358v-1.559h-1.284v-.5H358v-1.238h.542v1.238h1.166v.5h-1.166v1.559h1.238v.5h-1.274v.165a24.032,24.032,0,0,1,1.392,2.5l-.479.2A15.462,15.462,0,0,0,358.4,874.554Zm2.847.132h-.877l-.072-.066v-4.431l.072-.066h3.977l.081.066v4.431l-.081.066h-1.094v2.162l.145.1h1.03l.108-.033a5.138,5.138,0,0,0,.108-1.023l.542.165q-.072,1.171-.325,1.287a.425.425,0,0,1-.326.107H363a.258.258,0,0,1-.289-.239v-2.525H361.8v.47a1.894,1.894,0,0,1-.108.668,3.166,3.166,0,0,1-2.124,1.791l-.289-.437a3.169,3.169,0,0,0,.877-.363,1.77,1.77,0,0,0,1.094-1.658Zm-.4-3.135h3.028v-.9l-.036-.033h-2.956l-.036.033Zm0,1.3h3.028v-.8H360.85Zm3.028.5H360.85v.833h2.992l.036-.033Z" transform="translate(-312.184 -869.851)" fill="#1b232a"/>
        <path id="路径_179" data-name="路径 179" d="M462.308,873.453v-.338h-2.052v-.429h2.052v-.371h-2.016v-.429h2.016v-.437h-2.377v-.429h2.377v-.371h-1.979v-.429h1.979v-.33h.542v.33h2.043q.154.033.154.165v.635h.506v.429h-.506v.734l-.154.132H462.85v.371h2.16v.429h-2.16v.338h2.739v.429h-5.658v-.429Zm-2.377,3.259h5.549v.5h-5.549Zm4.962-.363h-4.565l-.072-.066v-1.9l.072-.066h4.565l.081.066v1.9Zm-2.549-1.229v-.371h-1.5l-.036.033v.338Zm0,.8v-.371h-1.536v.371h1.536Zm.506-5.272v.371H464.5v-.264l-.072-.107Zm0,.8v.437h1.573l.072-.066v-.371Zm.036,3.3v.371h1.537v-.338l-.036-.033Zm0,.8v.371h1.5l.036-.033v-.338ZM466,870.516h.542v5.4H466Zm1.455-.627H468v6.989a.491.491,0,0,1-.289.5,2.094,2.094,0,0,1-1.5,0v-.5a2.3,2.3,0,0,0,.949.132.355.355,0,0,0,.289-.132v-6.989Z" transform="translate(-393.093 -869.881)" fill="#1b232a"/>
      </g>
    </g>
  </g>
</svg>
