<svg xmlns="http://www.w3.org/2000/svg" xmlns:xlink="http://www.w3.org/1999/xlink" width="81" height="475" viewBox="0 0 81 475">
  <defs>
    <clipPath id="clip-path">
      <rect id="矩形_312" data-name="矩形 312" width="81" height="475" transform="translate(0.29)" fill="#fff"/>
    </clipPath>
  </defs>
  <g id="组_393" data-name="组 393" transform="translate(-1666.29 -111)">
    <g id="组_392" data-name="组 392" transform="translate(1666 111)">
      <g id="组_391" data-name="组 391" clip-path="url(#clip-path)">
        <path id="路径_2560" data-name="路径 2560" d="M1729.13,271.349V207.9l25.279-31.723-2.478-2.478-45.106,58.985h-.991v1.487l-17.349,21.809-16.853-20.818v-2.478h-1.487l-36.68-48.576-2.478,1.983,16.357,21.809v63.446L1629.5,296.628l2.974,2.478,14.87-20.818V311L1629.5,333.8l2.478,2.478,15.366-20.322v48.08l-17.844,23.3,2.974,2.478L1647.84,369l-.5,217.6h2.974V537.524h17.348V586.6h3.965l.5-39.654,11.4-13.383,3.47,3.965.5,49.071h2.974V537.524l2.974-3.965,12.392,13.879V586.6h3.965V537.524h16.853V586.6h2.478V368l11.4,15.366V586.6H1744V551.4l10.9,24.288v10.9h2.974V523.149l4.709-5.2,3.222,4.709V586.6h3.47V574.7l11.4-25.279.5,37.175h2.478V344.213Zm-78.564-58.737,16.853,21.314v39.158l-16.853-19.331Zm0,48.08,16.853,19.827v3.965l-16.853,21.809Zm0,148.205h8.426v5.948h-8.426Zm0,8.922h8.426v14.87h-8.426Zm0,17.844h8.426v24.288h-8.426Zm0,26.766h8.426v24.288h-8.426Zm0,27.262h8.426V513.98h-8.426Zm17.348,45.106h-17.348v-7.435h17.348Zm0-10.9h-17.348v-6.939h17.348Zm0-9.913h-5.948V489.692h5.948Zm0-27.262h-5.948V462.43h5.948Zm0-26.766h-5.948V435.664h5.948Zm0-27.262h-5.948V417.82h5.948Zm0-17.844h-5.948V408.9h5.948Zm0-9.418h-17.348V388.575h17.348Zm0-19.827h-17.348V364.287l17.348-22.8Zm0-50.063-17.348,23.3V311.746l17.348-21.809Zm37.671-95.664v38.167l-.5.5-14.374-19.331ZM1690.219,447.56V431.2l15.366-17.348v16.853Zm15.366-11.9v79.8l-6.939,8.426-8.427-8.922V453.012Zm-15.366-9.418V409.393l15.366-17.348V408.4Zm0-21.809V387.584l15.366-16.853v16.853Zm0-21.314V366.27l15.366-17.844v17.348Zm0-21.314V344.956l15.366-17.348v16.853Zm0-21.809V322.651l15.366-16.853v16.853Zm0-21.809V301.833l15.366-16.357v15.366Zm-18.34-77.82,14.374,18.34V260.2l-14.374,17.844Zm0,280.053,4.957,5.948-4.957,5.452Zm0,21.314V536.78l6.939-7.931,2.478,2.478Zm15.366-8.922-1.487-1.487,1.487-1.983Zm0-12.887v4.461l-3.965,4.461-1.983-2.478Zm0-4.957-7.931,8.922-7.435-8.426v-79.8l15.366,17.348Zm0-67.411-15.366-16.853V413.854l15.366,17.348Zm0-21.314L1671.88,408.9V392.045l15.366,17.348Zm0-21.809-15.366-16.853V370.731l15.366,16.853Zm0-21.809-15.366-16.853V349.417l15.366,16.853Zm0-20.818-15.366-17.348V327.112l15.366,17.844Zm0-21.809-15.366-17.348V305.8l15.366,17.348Zm0-21.809-15.366-17.348V285.476l15.366,16.853Zm-12.887-37.671,14.374-18.34,14.374,18.835-14.374,15.861Zm15.861,252.3V528.85l1.487,1.983Zm3.47-3.965-3.47-3.965v-5.452l5.452,6.939Zm11.9,12.887-9.418-10.9,1.487-1.983,7.931,8.426Zm.248-9.17-4.957-4.957v-1.983l4.957-5.452Zm3.718-123.67H1715v5.948h-5.452Zm0,8.922H1715v14.87h-5.452Zm0,17.844H1715v24.288h-5.452Zm0,27.262H1715v23.792h-5.452Zm0,26.766H1715V513.98h-5.452ZM1726.4,534.3h-16.853v-6.939H1726.4Zm0-10.409h-16.853v-6.939H1726.4Zm0-9.913h-7.931V489.692h7.931Zm0-27.262h-7.931V462.926h7.931Zm0-26.766h-7.931V435.664h7.931Zm0-27.262h-7.931V417.82h7.931Zm0-17.844h-7.931V408.9h7.931Zm0-9.418h-16.853V388.575H1726.4Zm0-19.827h-16.853V341.487l16.853,23.3Zm0-26.766-16.853-22.8v-46.1l16.853,21.314Zm0-52.541-16.853-22.305v-3.47l16.853-19.331Zm0-52.541-16.853,19.331V234.422l16.853-21.809Zm2.974,23.792,8.922,12.392V321.66l-8.922-10.9Zm13.879,103.1L1729.377,363.3V316.207l31.227,40.645Zm14.87,26.271,2.479,2.974-2.479,2.974Zm-.5,53.037,2.478,2.974-2.478,2.974Zm-12.392-22.305h9.418v12.887Zm9.418,18.34v13.879l-10.409,13.383V442.6Zm-9.418-21.314,9.418-12.887v12.887Zm-.991-4.461V388.575l10.409,13.879v14.374Zm10.9,137.3-10.409-24.288h10.409Zm0-27.262h-9.418l9.418-12.392Zm0-17.844-10.9,13.879V495.144l10.9,14.374Zm0-17.844-10.409-13.879h10.409Zm0-16.853h-9.913l9.913-12.887Zm0-90.708-8.922-11.9h8.922Zm0-14.87h-8.427l8.427-11.4Zm2.478,137.3V512l2.974,3.47Zm7.931-1.487-1.487-1.983,1.487-2.478Zm0-9.418-3.47,4.461-4.461-5.452.5-37.175,3.965-4.957,3.47,4.461Zm0-43.619-1.487-1.983,1.487-1.487Zm0-9.418-3.47,4.461-3.965-4.957V417.82l3.965-5.452,3.47,4.957Zm0-43.619-1.487-1.983,1.487-1.983Zm0-8.922-2.974,3.965-4.461-5.452V365.774l4.461-6.444,2.974,3.965Zm0-45.106-24.288-31.227V293.9l24.288,32.714Zm3.47,9.913,10.409,13.879h-10.409Zm0,16.853h10.409l-10.409,13.383Zm0,37.175,9.913,12.887h-9.913Zm0,15.861h9.913l-9.913,12.887Zm0,129.866V543.224h11.4Zm0-26.766V527.858l10.409,12.887Zm11.9-2.974-11.9-14.87V509.023l11.9-14.87Zm-1.983-47.089-9.913,13.383V490.683Zm-9.913-2.974V475.317l9.913,12.392Zm11.9-2.478s-11.4-14.374-11.9-15.366,0-13.879,0-13.879l11.9-15.366Zm0-53.037-11.9-15.861V402.95l11.9-15.366Zm0-54.028-11.9-15.366V331.573l11.9,15.861ZM1650.566,111h-3.47V268.127h3.47Zm78.316,0H1726.4V268.127h2.478Z" transform="translate(-1647.592 -111)" fill="#fff"/>
      </g>
    </g>
  </g>
</svg>
