<svg xmlns="http://www.w3.org/2000/svg" xmlns:xlink="http://www.w3.org/1999/xlink" width="44" height="208" viewBox="0 0 44 208">
  <defs>
    <clipPath id="clip-path">
      <path id="路径_181" data-name="路径 181" d="M0,0,43.771.048,44,208H0Z" transform="translate(0.194 -0.088)" fill="#efece8"/>
    </clipPath>
  </defs>
  <g id="组_327" data-name="组 327" transform="translate(-1456.312 -190.137)">
    <g id="蒙版组_1" data-name="蒙版组 1" transform="translate(1456.119 190.225)" clip-path="url(#clip-path)">
      <path id="路径_180" data-name="路径 180" d="M1474.481,185.407V151.031l13.7-17.188-1.343-1.343L1462.4,164.459h-.537v.806l-9.4,11.817-9.131-11.28v-1.343h-.806l-19.874-26.319-1.343,1.074,8.863,11.817v34.376l-9.668,13.7,1.611,1.343,8.057-11.28v17.725l-9.668,12.354,1.343,1.343,8.326-11.011v26.051l-9.668,12.623,1.611,1.343,8.325-11.28-.269,117.9h1.611V329.626h9.4v26.588h2.148l.269-21.485,6.177-7.251,1.88,2.149.268,26.588h1.611V329.626l1.611-2.149,6.714,7.52v21.217h2.149V329.626h9.131v26.588h1.343V237.777l6.177,8.326V356.214h1.88V337.146l5.908,13.16v5.908h1.611V321.838l2.551-2.82,1.746,2.551v34.645h1.88v-6.446l6.177-13.7.269,20.142h1.343V224.886Zm-42.567-31.825,9.131,11.548v21.217l-9.131-10.474Zm0,26.051,9.131,10.743v2.149l-9.131,11.817Zm0,80.3h4.566v3.223h-4.566Zm0,4.834h4.566v8.057h-4.566Zm0,9.668h4.566V287.6h-4.566Zm0,14.5h4.566V302.1h-4.566Zm0,14.771h4.566v13.16h-4.566Zm9.4,24.439h-9.4v-4.028h9.4Zm0-5.908h-9.4v-3.76h9.4Zm0-5.371h-3.223V303.71h3.223Zm0-14.771h-3.223v-13.16h3.223Zm0-14.5h-3.223v-13.16h3.223Zm0-14.771h-3.223v-8.057h3.223Zm0-9.668h-3.223v-3.223h3.223Zm0-5.1h-9.4v-9.131h9.4Zm0-10.743h-9.4V235.763l9.4-12.354Zm0-27.125-9.4,12.623V207.3l9.4-11.817Zm20.411-51.833v20.679l-.268.269-7.788-10.474ZM1453.4,280.882v-8.863l8.325-9.4v9.131Zm8.325-6.446v43.239l-3.76,4.566-4.566-4.834V283.836Zm-8.325-5.1V260.2l8.325-9.4v8.863Zm0-11.817v-9.131l8.325-9.131v9.131Zm0-11.548v-9.131l8.325-9.668v9.4Zm0-11.548v-9.131l8.325-9.4v9.131Zm0-11.817v-9.4l8.325-9.131V213.2Zm0-11.817v-8.863l8.325-8.863v8.326Zm-9.937-42.165,7.788,9.937v.806l-7.788,9.668Zm0,151.739,2.686,3.223-2.686,2.954Zm0,11.548v-2.686l3.76-4.3,1.343,1.343Zm8.325-4.834-.806-.806.806-1.074Zm0-6.983v2.417l-2.148,2.417-1.074-1.343Zm0-2.686-4.3,4.834-4.028-4.566V274.436l8.325,9.4Zm0-36.525-8.325-9.131V262.62l8.325,9.4Zm0-11.548-8.325-9.4V250.8l8.325,9.4Zm0-11.817-8.325-9.131v-9.131l8.325,9.131Zm0-11.817-8.325-9.131v-8.863l8.325,9.131Zm0-11.28-8.325-9.4v-9.4l8.325,9.668Zm0-11.817-8.325-9.4v-9.131l8.325,9.4Zm0-11.817-8.325-9.4v-8.326l8.325,9.131Zm-6.983-20.411,7.788-9.937,7.788,10.205-7.788,8.594Zm8.594,136.7v-2.149L1454.2,326Zm1.88-2.149-1.88-2.149v-2.954l2.954,3.76Zm6.445,6.983-5.1-5.908.806-1.074,4.3,4.566Zm.134-4.968-2.686-2.686v-1.074l2.686-2.954Zm2.014-67.007h2.954v3.223h-2.954Zm0,4.834h2.954v8.057h-2.954Zm0,9.668h2.954V287.6h-2.954Zm0,14.771h2.954V302.1h-2.954Zm0,14.5h2.954v13.16h-2.954ZM1473,327.881h-9.131v-3.76H1473Zm0-5.64h-9.131v-3.76H1473Zm0-5.371h-4.3V303.71h4.3Zm0-14.771h-4.3V289.207h4.3Zm0-14.5h-4.3v-13.16h4.3Zm0-14.771h-4.3v-8.057h4.3Zm0-9.668h-4.3v-3.223h4.3Zm0-5.1h-9.131v-9.131H1473Zm0-10.743h-9.131v-23.9L1473,236.032Zm0-14.5-9.131-12.354V195.478L1473,207.027Zm0-28.468-9.131-12.085v-1.88L1473,179.9Zm0-28.468-9.131,10.474V165.4L1473,153.582Zm1.611,12.891,4.834,6.714v17.188l-4.834-5.908Zm7.52,55.861-7.52-9.4V209.712l16.92,22.022Zm8.057,14.234,1.343,1.611-1.343,1.611Zm-.269,28.736,1.343,1.611-1.343,1.611Zm-6.714-12.085h5.1v6.983Zm5.1,9.937v7.52l-5.64,7.251V278.2Zm-5.1-11.548,5.1-6.983V273.9Zm-.537-2.417V248.923l5.64,7.52v7.788Zm5.908,74.392-5.64-13.16h5.64Zm0-14.771h-5.1l5.1-6.714Zm0-9.668-5.908,7.52V306.664l5.908,7.788Zm0-9.668-5.64-7.52h5.64Zm0-9.131h-5.371l5.371-6.983Zm0-49.147-4.834-6.446h4.834Zm0-8.057h-4.566l4.566-6.177Zm1.343,74.392V315.8l1.611,1.88Zm4.3-.806-.806-1.074.806-1.343Zm0-5.1-1.88,2.417-2.417-2.954.269-20.142,2.148-2.686,1.88,2.417Zm0-23.634-.806-1.074.806-.806Zm0-5.1-1.88,2.417-2.148-2.686V264.768l2.148-2.954,1.88,2.686Zm0-23.634-.806-1.074.806-1.074Zm0-4.834-1.611,2.149-2.417-2.954V236.569l2.417-3.491,1.611,2.149Zm0-24.439-13.16-16.92V197.627l13.16,17.725Zm1.88,5.371,5.64,7.52h-5.64Zm0,9.131h5.64l-5.64,7.251Zm0,20.142,5.371,6.983H1496.1Zm0,8.594h5.371l-5.371,6.983Zm0,70.364v-13.16h6.177Zm0-14.5v-6.983l5.64,6.983Zm6.445-1.611L1496.1,321.7v-7.52l6.445-8.057Zm-1.074-25.514L1496.1,311.5v-7.251Zm-5.371-1.611v-6.714l5.371,6.714Zm6.445-1.343s-6.177-7.788-6.445-8.326,0-7.52,0-7.52l6.445-8.326Zm0-28.736-6.445-8.594v-7.251l6.445-8.326Zm0-29.274-6.445-8.326v-16.92l6.445,8.594Z" transform="translate(-1430.153 -148.169)" fill="#efece8"/>
    </g>
  </g>
</svg>
